HIERARCHY
ROOT Hips
{
	OFFSET 0.000000 0.000000 0.000000 
	CHANNELS 6 Xposition Yposition Zposition Zrotation Xrotation Yrotation
	JOINT Spine
	{
		OFFSET -0.000000 8.285670 0.000000 
		CHANNELS 3 Zrotation Xrotation Yrotation
		JOINT Spine1
		{
			OFFSET 0.000083 20.116924 -0.000203 
			CHANNELS 3 Zrotation Xrotation Yrotation
			JOINT Neck
			{
				OFFSET -0.000000 22.301800 0.000000 
				CHANNELS 3 Zrotation Xrotation Yrotation
				JOINT Head
				{
					OFFSET -0.000000 15.661900 2.020890 
					CHANNELS 3 Zrotation Xrotation Yrotation
					End Site
					{
						OFFSET -0.000000 20.208887 0.000000 
					}
				}
			}
			JOINT LeftShoulder
			{
				OFFSET 3.887530 15.503099 -0.416373 
				CHANNELS 3 Zrotation Xrotation Yrotation
				JOINT LeftArm
				{
					OFFSET 20.767099 0.000000 0.000000 
					CHANNELS 3 Zrotation Xrotation Yrotation
					JOINT LeftForeArm
					{
						OFFSET 26.608500 0.000000 0.000000 
						CHANNELS 3 Zrotation Xrotation Yrotation
						JOINT LeftHand
						{
							OFFSET 23.393822 0.000119 0.000072 
							CHANNELS 3 Zrotation Xrotation Yrotation
							End Site
							{
								OFFSET 15.156667 0.000000 0.000000 
							}
						}
					}
				}
			}
			JOINT RightShoulder
			{
				OFFSET -4.190880 15.503099 -0.416373 
				CHANNELS 3 Zrotation Xrotation Yrotation
				JOINT RightArm
				{
					OFFSET -20.767099 0.000000 0.000000 
					CHANNELS 3 Zrotation Xrotation Yrotation
					JOINT RightForeArm
					{
						OFFSET -26.608500 0.000000 0.000000 
						CHANNELS 3 Zrotation Xrotation Yrotation
						JOINT RightHand
						{
							OFFSET -25.444746 -0.025034 0.462592 
							CHANNELS 3 Zrotation Xrotation Yrotation
							End Site
							{
								OFFSET -15.156667 0.000000 0.000000 
							}
						}
					}
				}
			}
		}
	}
	JOINT LeftUpLeg
	{
		OFFSET 10.104500 0.000000 0.000000 
		CHANNELS 3 Zrotation Xrotation Yrotation
		JOINT LeftLeg
		{
			OFFSET -0.000000 -50.743301 0.000000 
			CHANNELS 3 Zrotation Xrotation Yrotation
			JOINT LeftFoot
			{
				OFFSET -0.000000 -35.579197 0.000000 
				CHANNELS 3 Zrotation Xrotation Yrotation
				JOINT LeftToeBase
				{
					OFFSET -0.000000 -6.567910 15.156700 
					CHANNELS 3 Zrotation Xrotation Yrotation
					End Site
					{
						OFFSET -0.000000 0.000000 4.041778 
					}
				}
			}
		}
	}
	JOINT RightUpLeg
	{
		OFFSET -10.104500 0.000000 0.000000 
		CHANNELS 3 Zrotation Xrotation Yrotation
		JOINT RightLeg
		{
			OFFSET -0.000000 -50.743301 0.000000 
			CHANNELS 3 Zrotation Xrotation Yrotation
			JOINT RightFoot
			{
				OFFSET -0.000000 -35.579197 0.000000 
				CHANNELS 3 Zrotation Xrotation Yrotation
				JOINT RightToeBase
				{
					OFFSET -0.000000 -6.567910 15.156700 
					CHANNELS 3 Zrotation Xrotation Yrotation
					End Site
					{
						OFFSET -0.000000 0.000000 4.041778 
					}
				}
			}
		}
	}
}
MOTION
Frames: 7
Frame Time: 0.010000
-17.073822 85.114410 1.645700 3.720696 5.434633 6.125206 -1.006758 -3.876058 -1.485028 -1.527116 4.209846 -0.427445 1.697230 -8.531811 -5.646664 -4.487324 3.995368 0.773555 -2.472003 8.744661 3.063355 -69.944717 24.802586 -21.669891 6.135526 1.208325 -9.212186 -26.537746 -0.366840 8.764862 -8.632030 0.557379 1.679027 78.357613 -22.240915 -6.261836 20.815504 14.794665 29.786219 8.027462 7.585233 -19.636175 12.207333 -17.512493 -8.091609 -4.590246 39.733212 -19.842758 -7.404958 -41.220978 28.524799 0.000000 0.000000 0.000000 -27.198565 -20.878181 -15.984849 3.296427 49.852047 -10.207911 24.010384 -25.547398 33.097519 0.000000 0.000000 0.000000 
-17.774462 85.015587 1.794998 3.891516 5.317929 6.165726 -1.111714 -3.762068 -1.511007 -1.569204 4.159325 -0.434395 1.749095 -8.514820 -5.505650 -4.432694 3.985849 0.766095 -2.334125 8.750809 2.941691 -70.150055 24.768620 -21.452877 6.308631 1.139614 -9.296956 -26.635321 -0.416720 8.731010 -8.603947 0.568863 1.693187 78.348907 -22.242891 -6.269925 20.825663 14.897708 29.792652 8.176560 7.652571 -19.762669 12.353145 -17.279316 -8.392415 -4.658501 39.545204 -19.491306 -7.990696 -41.232876 28.120419 0.000000 0.000000 0.000000 -27.229025 -20.714445 -16.099163 3.284552 50.076141 -10.020450 24.019855 -26.061953 33.379425 0.000000 0.000000 0.000000 
-18.479639 84.919022 1.945327 4.067229 5.193217 6.207654 -1.224332 -3.641463 -1.537461 -1.607233 4.111097 -0.441560 1.797300 -8.498931 -5.359495 -4.360668 3.985537 0.756341 -2.199993 8.745934 2.815874 -70.359848 24.738007 -21.223124 6.487402 1.067669 -9.387012 -26.735773 -0.469256 8.698615 -8.574107 0.581777 1.709303 78.337914 -22.243769 -6.277588 20.833633 14.998907 29.800192 8.328361 7.717492 -19.891035 12.488848 -17.035109 -8.710085 -4.734768 39.347572 -19.119738 -8.579069 -41.231674 27.702824 0.000000 0.000000 0.000000 -27.248604 -20.546280 -16.219296 3.274244 50.316521 -9.834656 24.012358 -26.593367 33.663773 0.000000 0.000000 0.000000 
-19.188522 84.824997 2.096465 4.247786 5.060392 6.251245 -1.344852 -3.513880 -1.564229 -1.640650 4.065027 -0.449057 1.841393 -8.484302 -5.208405 -4.270813 3.994968 0.745016 -2.070453 8.729875 2.686171 -70.573425 24.710983 -20.981039 6.671638 0.992592 -9.481967 -26.839025 -0.524470 8.667773 -8.542625 0.596187 1.727487 78.324516 -22.243660 -6.285119 20.839369 15.097760 29.809202 8.481928 7.779771 -20.020653 12.613572 -16.780186 -9.045171 -4.819631 39.141052 -18.728846 -9.165775 -41.217258 27.274940 0.000000 0.000000 0.000000 -27.257675 -20.373091 -16.344240 3.265629 50.571548 -9.651115 23.987904 -27.139824 33.948593 0.000000 0.000000 0.000000 
-19.900156 84.733818 2.248317 4.433143 4.919152 6.296607 -1.473219 -3.379217 -1.591290 -1.669457 4.021494 -0.456907 1.880947 -8.471108 -5.051090 -4.162052 4.014473 0.730548 -1.945706 8.702123 2.552963 -70.790596 24.687872 -20.726328 6.861005 0.914447 -9.582158 -26.944788 -0.582289 8.638718 -8.509577 0.612076 1.747717 78.308815 -22.242739 -6.292649 20.843157 15.193963 29.819477 8.635755 7.839321 -20.150188 12.726379 -16.514669 -9.398156 -4.913393 38.926517 -18.319624 -9.746901 -41.190033 26.839602 0.000000 0.000000 0.000000 -27.256584 -20.193871 -16.472937 3.258919 50.839165 -9.469916 23.946156 -27.699743 34.231262 0.000000 0.000000 0.000000 
-20.613625 84.645782 2.400738 4.623380 4.769348 6.343936 -1.609588 -3.237396 -1.618523 -1.693349 3.980772 -0.465103 1.915557 -8.459522 -4.887839 -4.033900 4.044578 0.713478 -1.826672 8.662621 2.416254 -71.010513 24.668526 -20.459188 7.055236 0.833290 -9.687511 -27.052845 -0.642620 8.611684 -8.474961 0.629784 1.770505 78.290871 -22.241041 -6.300251 20.844858 15.286788 29.831400 8.788656 7.895646 -20.278635 12.826266 -16.238649 -9.769626 -5.016510 38.704639 -17.892967 -10.317218 -41.149990 26.400146 0.000000 0.000000 0.000000 -27.245771 -20.007658 -16.604214 3.317894 51.170975 -9.340876 23.814003 -28.359312 34.424263 0.000000 0.000000 0.000000 
-21.328081 84.561172 2.553597 4.818233 4.610848 6.393359 -1.753919 -3.088380 -1.646220 -1.712058 3.942999 -0.473397 1.944831 -8.449717 -4.718906 -3.886070 4.085468 0.693878 -1.713824 8.611101 2.276611 -71.232880 24.653612 -20.179783 7.254282 0.749108 -9.797797 -27.163088 -0.705453 8.586637 -8.438866 0.649240 1.795746 78.270645 -22.238754 -6.308141 20.844967 15.376073 29.844894 8.938872 7.948798 -20.404911 12.912436 -15.952579 -10.160012 -5.129394 38.476563 -17.450308 -10.872387 -41.098194 25.960079 0.000000 0.000000 0.000000 -27.225533 -19.813608 -16.737074 3.311605 51.459290 -9.162309 23.741415 -28.939241 34.697304 0.000000 0.000000 0.000000 
